<svg width="38" height="38" fill="none" xmlns="http://www.w3.org/2000/svg"><path d="M38 19a19 19 0 1 1-38 0 19 19 0 0 1 38 0Z" fill="#FCFCFC" fill-opacity=".3"/><path fill-rule="evenodd" clip-rule="evenodd" d="M19.9 24.1a.7.7 0 0 0 1-1L16.5 19l4.2-4.2a.7.7 0 0 0-1-1l-4.6 4.7c-.3.3-.3.7 0 1l4.7 4.6Z" fill="#FCFCFC"/><path d="M19 2a17 17 0 0 1 17 17h4A21 21 0 0 0 19-2v4ZM2 19A17 17 0 0 1 19 2v-4A21 21 0 0 0-2 19h4Zm17 17A17 17 0 0 1 2 19h-4a21 21 0 0 0 21 21v-4Zm0 4a21 21 0 0 0 21-21h-4a17 17 0 0 1-17 17v4Z" fill="#FCFCFC"/></svg>