<svg width="16" height="16" viewBox="0 0 16 16" fill="currentColor" xmlns="http://www.w3.org/2000/svg">
  <path fill-rule="evenodd" clip-rule="evenodd" d="M1.61513 1.61532C1.79569 1.43477 2.04057 1.33333 2.2959 1.33333H13.7029C13.9446 1.33333 14.0431 1.36186 14.0976 1.38594C14.1553 1.41144 14.2281 1.45981 14.3836 1.61532C14.5908 1.82251 14.6656 2.04757 14.6656 2.29609V13.6647C14.6649 13.677 14.6646 13.6895 14.6646 13.702C14.6646 13.9574 14.5632 14.2022 14.3826 14.3828C14.2021 14.5633 13.9572 14.6648 13.7018 14.6648H2.2959C2.04057 14.6648 1.79569 14.5633 1.61513 14.3828C1.43458 14.2022 1.33315 13.9574 1.33315 13.702V2.29609C1.33315 2.04075 1.43458 1.79587 1.61513 1.61532ZM15.8381 14.5437C15.7237 14.834 15.5503 15.1007 15.3254 15.3256C14.8948 15.7562 14.3108 15.9981 13.7018 15.9981H2.2959C1.68694 15.9981 1.10293 15.7562 0.672325 15.3256C0.241725 14.895 -0.000183105 14.311 -0.000183105 13.702V2.29609C-0.000183105 1.68713 0.241725 1.10311 0.672325 0.672508C0.898314 0.446519 1.16656 0.272503 1.45849 0.158153C1.57473 0.0595056 1.72523 0 1.88963 0H2.2959H13.7029C14.0403 0 14.3458 0.0379078 14.6365 0.16636C14.924 0.293391 15.1376 0.483641 15.3265 0.672511C15.808 1.15407 15.999 1.72989 15.999 2.29609V14.1094C15.999 14.2753 15.9384 14.427 15.8381 14.5437Z" />
</svg>
